<mxfile host="app.diagrams.net" modified="2021-12-11T09:44:59.632Z" agent="5.0 (Macintosh; Intel Mac OS X 10_15_7) AppleWebKit/605.1.15 (KHTML, like Gecko) Version/15.1 Safari/605.1.15" etag="cRyBE2Izfr2twDIS_2Ki" version="15.9.4" type="github">
  <diagram id="LPFOnR6ylyAWMY7sPRQj" name="第 1 页">
    <mxGraphModel dx="580" dy="399" grid="1" gridSize="10" guides="1" tooltips="1" connect="1" arrows="1" fold="1" page="1" pageScale="1" pageWidth="827" pageHeight="1169" math="0" shadow="0">
      <root>
        <mxCell id="0" />
        <mxCell id="1" parent="0" />
        <mxCell id="GmiGqDjB-2C6g80Tw_Px-3" value="40字节数据" style="rounded=0;whiteSpace=wrap;html=1;" vertex="1" parent="1">
          <mxGeometry x="240" y="310" width="370" height="110" as="geometry" />
        </mxCell>
        <mxCell id="GmiGqDjB-2C6g80Tw_Px-5" value="" style="shape=curlyBracket;whiteSpace=wrap;html=1;rounded=1;" vertex="1" parent="1">
          <mxGeometry x="220" y="310" width="20" height="110" as="geometry" />
        </mxCell>
        <mxCell id="GmiGqDjB-2C6g80Tw_Px-6" value="getbuf栈帧" style="text;html=1;align=center;verticalAlign=middle;resizable=0;points=[];autosize=1;strokeColor=none;fillColor=none;" vertex="1" parent="1">
          <mxGeometry x="150" y="355" width="70" height="20" as="geometry" />
        </mxCell>
        <mxCell id="GmiGqDjB-2C6g80Tw_Px-8" value="" style="rounded=0;whiteSpace=wrap;html=1;" vertex="1" parent="1">
          <mxGeometry x="240" y="150" width="370" height="160" as="geometry" />
        </mxCell>
        <mxCell id="GmiGqDjB-2C6g80Tw_Px-9" value="" style="shape=curlyBracket;whiteSpace=wrap;html=1;rounded=1;" vertex="1" parent="1">
          <mxGeometry x="220" y="150" width="20" height="160" as="geometry" />
        </mxCell>
        <mxCell id="GmiGqDjB-2C6g80Tw_Px-10" value="test栈帧" style="text;html=1;align=center;verticalAlign=middle;resizable=0;points=[];autosize=1;strokeColor=none;fillColor=none;" vertex="1" parent="1">
          <mxGeometry x="155" y="220" width="60" height="20" as="geometry" />
        </mxCell>
      </root>
    </mxGraphModel>
  </diagram>
</mxfile>
